<svg width="400" height="400" viewBox="0 0 400 400" fill="none" xmlns="http://www.w3.org/2000/svg">
<rect width="400" height="400" rx="100" fill="white"/>
<path d="M368.878 79.9176L209.633 364.571C206.345 370.448 197.898 370.483 194.561 364.634L32.1579 79.9451C28.5222 73.5717 33.9741 65.8519 41.199 67.1428L200.615 95.627C201.632 95.8086 202.673 95.8069 203.69 95.6217L359.772 67.1836C366.972 65.8717 372.45 73.5318 368.878 79.9176Z" fill="url(#paint0_linear_2_2)"/>
<path d="M334.824 107.255L207.372 335.289C204.741 339.997 197.98 340.024 195.309 335.339L65.3298 107.277C62.4199 102.171 66.7834 95.9867 72.5658 97.0208L200.154 119.839C200.968 119.985 201.802 119.983 202.616 119.835L327.536 97.0535C333.299 96.0026 337.683 102.139 334.824 107.255Z" fill="url(#paint1_linear_2_2)"/>
<path d="M260.932 67.0912L166.613 85.5828C165.063 85.8867 163.915 87.2012 163.822 88.7787L158.02 186.823C157.883 189.132 160.003 190.924 162.256 190.405L188.515 184.341C190.972 183.774 193.192 185.939 192.687 188.411L184.886 226.636C184.361 229.209 186.775 231.409 189.286 230.646L205.505 225.715C208.019 224.951 210.435 227.157 209.903 229.732L197.505 289.775C196.729 293.531 201.722 295.579 203.804 292.359L205.195 290.208L282.051 136.743C283.338 134.173 281.119 131.243 278.298 131.788L251.268 137.008C248.728 137.498 246.567 135.131 247.284 132.644L264.926 71.4523C265.643 68.9616 263.475 66.5927 260.932 67.0912Z" fill="url(#paint2_linear_2_2)"/>
<defs>
<linearGradient id="paint0_linear_2_2" x1="28.1928" y1="56.9697" x2="226.291" y2="326.102" gradientUnits="userSpaceOnUse">
<stop stop-color="#FFA800"/>
<stop offset="1" stop-color="#BD34FE"/>
</linearGradient>
<linearGradient id="paint1_linear_2_2" x1="62.1562" y1="88.8712" x2="220.895" y2="304.331" gradientUnits="userSpaceOnUse">
<stop stop-color="#41D1FF"/>
<stop offset="1" stop-color="#BD34FE"/>
</linearGradient>
<linearGradient id="paint2_linear_2_2" x1="192.831" y1="72.1116" x2="221.557" y2="269.057" gradientUnits="userSpaceOnUse">
<stop stop-color="#FFEA83"/>
<stop offset="0.0833333" stop-color="#FFDD35"/>
<stop offset="1" stop-color="#FFA800"/>
</linearGradient>
</defs>
</svg>
